<mxfile host="app.diagrams.net" modified="2023-05-23T14:06:26.748Z" agent="Mozilla/5.0 (X11; Ubuntu; Linux x86_64; rv:109.0) Gecko/20100101 Firefox/113.0" etag="_2MBnuFSddoxBrLR-sIk" version="21.3.3" type="github">
  <diagram name="Page-1" id="g_6lmg3lHrvDkqRM22pA">
    <mxGraphModel dx="806" dy="454" grid="1" gridSize="10" guides="1" tooltips="1" connect="1" arrows="1" fold="1" page="1" pageScale="1" pageWidth="850" pageHeight="1100" math="0" shadow="0">
      <root>
        <mxCell id="0" />
        <mxCell id="1" parent="0" />
        <mxCell id="PxrWiQvhpTHwRh7bZ3xM-5" style="edgeStyle=orthogonalEdgeStyle;rounded=0;orthogonalLoop=1;jettySize=auto;html=1;entryX=0.5;entryY=0;entryDx=0;entryDy=0;" edge="1" parent="1" source="PxrWiQvhpTHwRh7bZ3xM-2" target="PxrWiQvhpTHwRh7bZ3xM-4">
          <mxGeometry relative="1" as="geometry" />
        </mxCell>
        <mxCell id="PxrWiQvhpTHwRh7bZ3xM-2" value="Start" style="rounded=1;whiteSpace=wrap;html=1;" vertex="1" parent="1">
          <mxGeometry x="340" y="50" width="120" height="60" as="geometry" />
        </mxCell>
        <mxCell id="PxrWiQvhpTHwRh7bZ3xM-7" style="edgeStyle=orthogonalEdgeStyle;rounded=0;orthogonalLoop=1;jettySize=auto;html=1;entryX=0.5;entryY=0;entryDx=0;entryDy=0;" edge="1" parent="1" source="PxrWiQvhpTHwRh7bZ3xM-4" target="PxrWiQvhpTHwRh7bZ3xM-6">
          <mxGeometry relative="1" as="geometry" />
        </mxCell>
        <mxCell id="PxrWiQvhpTHwRh7bZ3xM-4" value="Generate a random word" style="rounded=1;whiteSpace=wrap;html=1;" vertex="1" parent="1">
          <mxGeometry x="340" y="160" width="120" height="60" as="geometry" />
        </mxCell>
        <mxCell id="PxrWiQvhpTHwRh7bZ3xM-9" style="edgeStyle=orthogonalEdgeStyle;rounded=0;orthogonalLoop=1;jettySize=auto;html=1;entryX=0.5;entryY=0;entryDx=0;entryDy=0;" edge="1" parent="1" source="PxrWiQvhpTHwRh7bZ3xM-6" target="PxrWiQvhpTHwRh7bZ3xM-8">
          <mxGeometry relative="1" as="geometry" />
        </mxCell>
        <mxCell id="PxrWiQvhpTHwRh7bZ3xM-6" value="Generate placeholder spaces for the nr. of letters in our word" style="rounded=1;whiteSpace=wrap;html=1;" vertex="1" parent="1">
          <mxGeometry x="340" y="260" width="120" height="60" as="geometry" />
        </mxCell>
        <mxCell id="PxrWiQvhpTHwRh7bZ3xM-13" style="edgeStyle=orthogonalEdgeStyle;rounded=0;orthogonalLoop=1;jettySize=auto;html=1;" edge="1" parent="1" source="PxrWiQvhpTHwRh7bZ3xM-8" target="PxrWiQvhpTHwRh7bZ3xM-10">
          <mxGeometry relative="1" as="geometry" />
        </mxCell>
        <mxCell id="PxrWiQvhpTHwRh7bZ3xM-8" value="Ask the user to guess a letter in the word" style="rounded=1;whiteSpace=wrap;html=1;" vertex="1" parent="1">
          <mxGeometry x="340" y="360" width="120" height="60" as="geometry" />
        </mxCell>
        <mxCell id="PxrWiQvhpTHwRh7bZ3xM-15" style="edgeStyle=orthogonalEdgeStyle;rounded=0;orthogonalLoop=1;jettySize=auto;html=1;entryX=0.5;entryY=0;entryDx=0;entryDy=0;" edge="1" parent="1" source="PxrWiQvhpTHwRh7bZ3xM-10" target="PxrWiQvhpTHwRh7bZ3xM-14">
          <mxGeometry relative="1" as="geometry" />
        </mxCell>
        <mxCell id="PxrWiQvhpTHwRh7bZ3xM-19" style="edgeStyle=orthogonalEdgeStyle;rounded=0;orthogonalLoop=1;jettySize=auto;html=1;entryX=0.5;entryY=0;entryDx=0;entryDy=0;" edge="1" parent="1" source="PxrWiQvhpTHwRh7bZ3xM-10" target="PxrWiQvhpTHwRh7bZ3xM-16">
          <mxGeometry relative="1" as="geometry" />
        </mxCell>
        <mxCell id="PxrWiQvhpTHwRh7bZ3xM-10" value="&lt;div&gt;Is the guessed letter &lt;br&gt;&lt;/div&gt;&lt;div&gt;in the word?&lt;/div&gt;" style="rhombus;whiteSpace=wrap;html=1;" vertex="1" parent="1">
          <mxGeometry x="320" y="460" width="160" height="140" as="geometry" />
        </mxCell>
        <mxCell id="PxrWiQvhpTHwRh7bZ3xM-21" style="edgeStyle=orthogonalEdgeStyle;rounded=0;orthogonalLoop=1;jettySize=auto;html=1;entryX=0;entryY=0.5;entryDx=0;entryDy=0;" edge="1" parent="1" source="PxrWiQvhpTHwRh7bZ3xM-11" target="PxrWiQvhpTHwRh7bZ3xM-8">
          <mxGeometry relative="1" as="geometry">
            <Array as="points">
              <mxPoint x="70" y="750" />
              <mxPoint x="70" y="390" />
            </Array>
          </mxGeometry>
        </mxCell>
        <mxCell id="PxrWiQvhpTHwRh7bZ3xM-26" style="edgeStyle=orthogonalEdgeStyle;rounded=0;orthogonalLoop=1;jettySize=auto;html=1;" edge="1" parent="1" source="PxrWiQvhpTHwRh7bZ3xM-11">
          <mxGeometry relative="1" as="geometry">
            <mxPoint x="175" y="870" as="targetPoint" />
          </mxGeometry>
        </mxCell>
        <mxCell id="PxrWiQvhpTHwRh7bZ3xM-11" value="&lt;div&gt;Are all the blank &lt;br&gt;&lt;/div&gt;&lt;div&gt;spaces filled?&lt;br&gt;&lt;/div&gt;" style="rhombus;whiteSpace=wrap;html=1;" vertex="1" parent="1">
          <mxGeometry x="95" y="680" width="160" height="140" as="geometry" />
        </mxCell>
        <mxCell id="PxrWiQvhpTHwRh7bZ3xM-24" style="edgeStyle=orthogonalEdgeStyle;rounded=0;orthogonalLoop=1;jettySize=auto;html=1;entryX=1;entryY=0.5;entryDx=0;entryDy=0;" edge="1" parent="1" source="PxrWiQvhpTHwRh7bZ3xM-12" target="PxrWiQvhpTHwRh7bZ3xM-8">
          <mxGeometry relative="1" as="geometry">
            <Array as="points">
              <mxPoint x="710" y="750" />
              <mxPoint x="710" y="390" />
            </Array>
          </mxGeometry>
        </mxCell>
        <mxCell id="PxrWiQvhpTHwRh7bZ3xM-25" style="edgeStyle=orthogonalEdgeStyle;rounded=0;orthogonalLoop=1;jettySize=auto;html=1;" edge="1" parent="1" source="PxrWiQvhpTHwRh7bZ3xM-12">
          <mxGeometry relative="1" as="geometry">
            <mxPoint x="600" y="870" as="targetPoint" />
          </mxGeometry>
        </mxCell>
        <mxCell id="PxrWiQvhpTHwRh7bZ3xM-12" value="&lt;div&gt;Have they run out&lt;/div&gt;&lt;div&gt;of lives?&lt;br&gt;&lt;/div&gt;" style="rhombus;whiteSpace=wrap;html=1;" vertex="1" parent="1">
          <mxGeometry x="520" y="680" width="160" height="140" as="geometry" />
        </mxCell>
        <mxCell id="PxrWiQvhpTHwRh7bZ3xM-17" style="edgeStyle=orthogonalEdgeStyle;rounded=0;orthogonalLoop=1;jettySize=auto;html=1;" edge="1" parent="1" source="PxrWiQvhpTHwRh7bZ3xM-14" target="PxrWiQvhpTHwRh7bZ3xM-11">
          <mxGeometry relative="1" as="geometry" />
        </mxCell>
        <mxCell id="PxrWiQvhpTHwRh7bZ3xM-14" value="Replace blank space(s) with the letter" style="rounded=1;whiteSpace=wrap;html=1;" vertex="1" parent="1">
          <mxGeometry x="100" y="580" width="150" height="60" as="geometry" />
        </mxCell>
        <mxCell id="PxrWiQvhpTHwRh7bZ3xM-18" style="edgeStyle=orthogonalEdgeStyle;rounded=0;orthogonalLoop=1;jettySize=auto;html=1;entryX=0.5;entryY=0;entryDx=0;entryDy=0;" edge="1" parent="1" source="PxrWiQvhpTHwRh7bZ3xM-16" target="PxrWiQvhpTHwRh7bZ3xM-12">
          <mxGeometry relative="1" as="geometry" />
        </mxCell>
        <mxCell id="PxrWiQvhpTHwRh7bZ3xM-16" value="Lose a life" style="rounded=1;whiteSpace=wrap;html=1;" vertex="1" parent="1">
          <mxGeometry x="525" y="580" width="150" height="60" as="geometry" />
        </mxCell>
        <mxCell id="PxrWiQvhpTHwRh7bZ3xM-30" style="edgeStyle=orthogonalEdgeStyle;rounded=0;orthogonalLoop=1;jettySize=auto;html=1;entryX=0;entryY=0.5;entryDx=0;entryDy=0;" edge="1" parent="1" source="PxrWiQvhpTHwRh7bZ3xM-27" target="PxrWiQvhpTHwRh7bZ3xM-29">
          <mxGeometry relative="1" as="geometry" />
        </mxCell>
        <mxCell id="PxrWiQvhpTHwRh7bZ3xM-27" value="You win!" style="rounded=1;whiteSpace=wrap;html=1;" vertex="1" parent="1">
          <mxGeometry x="110" y="870" width="120" height="60" as="geometry" />
        </mxCell>
        <mxCell id="PxrWiQvhpTHwRh7bZ3xM-31" style="edgeStyle=orthogonalEdgeStyle;rounded=0;orthogonalLoop=1;jettySize=auto;html=1;entryX=1;entryY=0.5;entryDx=0;entryDy=0;" edge="1" parent="1" source="PxrWiQvhpTHwRh7bZ3xM-28" target="PxrWiQvhpTHwRh7bZ3xM-29">
          <mxGeometry relative="1" as="geometry" />
        </mxCell>
        <mxCell id="PxrWiQvhpTHwRh7bZ3xM-28" value="You lose!" style="rounded=1;whiteSpace=wrap;html=1;" vertex="1" parent="1">
          <mxGeometry x="540" y="870" width="120" height="60" as="geometry" />
        </mxCell>
        <mxCell id="PxrWiQvhpTHwRh7bZ3xM-29" value="GAME OVER" style="rounded=1;whiteSpace=wrap;html=1;" vertex="1" parent="1">
          <mxGeometry x="340" y="950" width="120" height="60" as="geometry" />
        </mxCell>
      </root>
    </mxGraphModel>
  </diagram>
</mxfile>
